<svg width="325" height="65" viewBox="0 0 325 65" fill="none" xmlns="http://www.w3.org/2000/svg">
<rect x="1.5" y="1.5" width="322" height="62" rx="28.5" fill="#FED807" fill-opacity="0.1" stroke="#FED807" stroke-width="3"/>
<path d="M52.9176 41V23.5455H59.1392C60.4972 23.5455 61.6222 23.7926 62.5142 24.2869C63.4063 24.7812 64.0739 25.4574 64.517 26.3153C64.9602 27.1676 65.1818 28.1278 65.1818 29.196C65.1818 30.2699 64.9574 31.2358 64.5085 32.0938C64.0653 32.946 63.3949 33.6222 62.4972 34.1222C61.6051 34.6165 60.483 34.8636 59.1307 34.8636H54.8523V32.6307H58.892C59.75 32.6307 60.446 32.483 60.9801 32.1875C61.5142 31.8864 61.9062 31.4773 62.1562 30.9602C62.4062 30.4432 62.5312 29.8551 62.5312 29.196C62.5312 28.5369 62.4062 27.9517 62.1562 27.4403C61.9062 26.929 61.5114 26.5284 60.9716 26.2386C60.4375 25.9489 59.733 25.804 58.858 25.804H55.5511V41H52.9176ZM73.5426 41.2642C72.2528 41.2642 71.142 40.9886 70.2102 40.4375C69.2841 39.8807 68.5682 39.0994 68.0625 38.0938C67.5625 37.0824 67.3125 35.8977 67.3125 34.5398C67.3125 33.1989 67.5625 32.017 68.0625 30.9943C68.5682 29.9716 69.2727 29.1733 70.1761 28.5994C71.0852 28.0256 72.1477 27.7386 73.3636 27.7386C74.1023 27.7386 74.8182 27.8608 75.5114 28.1051C76.2045 28.3494 76.8267 28.733 77.3778 29.2557C77.929 29.7784 78.3636 30.4574 78.6818 31.2926C79 32.1222 79.1591 33.1307 79.1591 34.3182V35.2216H68.7528V33.3125H76.6619C76.6619 32.642 76.5256 32.0483 76.2528 31.5312C75.9801 31.0085 75.5966 30.5966 75.1023 30.2955C74.6136 29.9943 74.0398 29.8438 73.3807 29.8438C72.6648 29.8438 72.0398 30.0199 71.5057 30.3722C70.9773 30.7187 70.5682 31.1733 70.2784 31.7358C69.9943 32.2926 69.8523 32.8977 69.8523 33.5511V35.0426C69.8523 35.9176 70.0057 36.6619 70.3125 37.2756C70.625 37.8892 71.0597 38.358 71.6165 38.6818C72.1733 39 72.8239 39.1591 73.5682 39.1591C74.0511 39.1591 74.4915 39.0909 74.8892 38.9545C75.2869 38.8125 75.6307 38.6023 75.9205 38.3239C76.2102 38.0455 76.4318 37.7017 76.5852 37.2926L78.9972 37.7273C78.804 38.4375 78.4574 39.0597 77.9574 39.5938C77.4631 40.1222 76.8409 40.5341 76.0909 40.8295C75.3466 41.1193 74.4972 41.2642 73.5426 41.2642ZM81.9865 41V27.9091H84.4496V29.9886H84.5859C84.8246 29.2841 85.245 28.7301 85.8473 28.3267C86.4553 27.9176 87.1428 27.7131 87.9098 27.7131C88.0689 27.7131 88.2564 27.7187 88.4723 27.7301C88.6939 27.7415 88.8672 27.7557 88.9922 27.7727V30.2102C88.8899 30.1818 88.7081 30.1506 88.4467 30.1165C88.1854 30.0767 87.924 30.0568 87.6626 30.0568C87.0604 30.0568 86.5234 30.1847 86.0518 30.4403C85.5859 30.6903 85.2166 31.0398 84.9439 31.4886C84.6712 31.9318 84.5348 32.4375 84.5348 33.0057V41H81.9865ZM101.007 31.1051L98.6974 31.5142C98.6009 31.2187 98.4474 30.9375 98.2372 30.6705C98.0327 30.4034 97.7543 30.1847 97.402 30.0142C97.0497 29.8437 96.6094 29.7585 96.081 29.7585C95.3594 29.7585 94.7571 29.9205 94.2741 30.2443C93.7912 30.5625 93.5497 30.9744 93.5497 31.4801C93.5497 31.9176 93.7116 32.2699 94.0355 32.5369C94.3594 32.804 94.8821 33.0227 95.6037 33.1932L97.6832 33.6705C98.8878 33.9489 99.7855 34.3778 100.376 34.9574C100.967 35.5369 101.263 36.2898 101.263 37.2159C101.263 38 101.036 38.6989 100.581 39.3125C100.132 39.9205 99.5043 40.3977 98.6974 40.7443C97.8963 41.0909 96.9673 41.2642 95.9105 41.2642C94.4446 41.2642 93.2486 40.9517 92.3224 40.3267C91.3963 39.696 90.8281 38.8011 90.6179 37.642L93.081 37.267C93.2344 37.9091 93.5497 38.3949 94.027 38.7244C94.5043 39.0483 95.1264 39.2102 95.8935 39.2102C96.7287 39.2102 97.3963 39.0369 97.8963 38.6903C98.3963 38.3381 98.6463 37.9091 98.6463 37.4034C98.6463 36.9943 98.4929 36.6506 98.1861 36.3722C97.8849 36.0937 97.4219 35.8835 96.7969 35.7415L94.581 35.2557C93.3594 34.9773 92.456 34.5341 91.8707 33.9261C91.2912 33.3182 91.0014 32.5483 91.0014 31.6165C91.0014 30.8437 91.2173 30.1676 91.6491 29.5881C92.081 29.0085 92.6776 28.5568 93.4389 28.233C94.2003 27.9034 95.0724 27.7386 96.0554 27.7386C97.4702 27.7386 98.5838 28.0455 99.3963 28.6591C100.209 29.267 100.746 30.0824 101.007 31.1051ZM109.579 41.2642C108.352 41.2642 107.281 40.983 106.366 40.4205C105.451 39.858 104.741 39.071 104.235 38.0597C103.729 37.0483 103.477 35.8665 103.477 34.5142C103.477 33.1562 103.729 31.9687 104.235 30.9517C104.741 29.9347 105.451 29.1449 106.366 28.5824C107.281 28.0199 108.352 27.7386 109.579 27.7386C110.806 27.7386 111.877 28.0199 112.792 28.5824C113.707 29.1449 114.417 29.9347 114.923 30.9517C115.428 31.9687 115.681 33.1562 115.681 34.5142C115.681 35.8665 115.428 37.0483 114.923 38.0597C114.417 39.071 113.707 39.858 112.792 40.4205C111.877 40.983 110.806 41.2642 109.579 41.2642ZM109.587 39.125C110.383 39.125 111.042 38.9148 111.565 38.4943C112.087 38.0739 112.474 37.5142 112.724 36.8153C112.979 36.1165 113.107 35.3466 113.107 34.5057C113.107 33.6705 112.979 32.9034 112.724 32.2045C112.474 31.5 112.087 30.9347 111.565 30.5085C111.042 30.0824 110.383 29.8693 109.587 29.8693C108.786 29.8693 108.121 30.0824 107.593 30.5085C107.07 30.9347 106.681 31.5 106.425 32.2045C106.175 32.9034 106.05 33.6705 106.05 34.5057C106.05 35.3466 106.175 36.1165 106.425 36.8153C106.681 37.5142 107.07 38.0739 107.593 38.4943C108.121 38.9148 108.786 39.125 109.587 39.125ZM121.074 33.2273V41H118.526V27.9091H120.972V30.0398H121.134C121.435 29.3466 121.906 28.7898 122.548 28.3693C123.196 27.9489 124.011 27.7386 124.994 27.7386C125.886 27.7386 126.668 27.9261 127.338 28.3011C128.009 28.6705 128.528 29.2216 128.898 29.9545C129.267 30.6875 129.452 31.5937 129.452 32.6733V41H126.903V32.9801C126.903 32.0312 126.656 31.2898 126.162 30.7557C125.668 30.2159 124.989 29.946 124.125 29.946C123.534 29.946 123.009 30.0739 122.548 30.3295C122.094 30.5852 121.733 30.9602 121.466 31.4545C121.205 31.9432 121.074 32.5341 121.074 33.2273ZM136.679 41.2898C135.849 41.2898 135.099 41.1364 134.429 40.8295C133.759 40.517 133.227 40.0653 132.835 39.4744C132.449 38.8835 132.256 38.1591 132.256 37.3011C132.256 36.5625 132.398 35.9545 132.682 35.4773C132.966 35 133.349 34.6222 133.832 34.3438C134.315 34.0653 134.855 33.8551 135.452 33.7131C136.048 33.571 136.656 33.4631 137.276 33.3892C138.06 33.2983 138.696 33.2244 139.185 33.1676C139.673 33.1051 140.028 33.0057 140.25 32.8693C140.472 32.733 140.582 32.5114 140.582 32.2045V32.1449C140.582 31.4006 140.372 30.8239 139.952 30.4148C139.537 30.0057 138.918 29.8011 138.094 29.8011C137.236 29.8011 136.56 29.9915 136.065 30.3722C135.577 30.7472 135.239 31.1648 135.051 31.625L132.656 31.0795C132.94 30.2841 133.355 29.642 133.901 29.1534C134.452 28.6591 135.085 28.3011 135.801 28.0795C136.517 27.8523 137.27 27.7386 138.06 27.7386C138.582 27.7386 139.136 27.8011 139.722 27.9261C140.313 28.0455 140.864 28.267 141.375 28.5909C141.892 28.9148 142.315 29.3778 142.645 29.9801C142.974 30.5767 143.139 31.3523 143.139 32.3068V41H140.651V39.2102H140.548C140.384 39.5398 140.136 39.8636 139.807 40.1818C139.477 40.5 139.054 40.7642 138.537 40.9744C138.02 41.1847 137.401 41.2898 136.679 41.2898ZM137.233 39.2443C137.938 39.2443 138.54 39.1051 139.04 38.8267C139.545 38.5483 139.929 38.1847 140.19 37.7358C140.457 37.2812 140.591 36.7955 140.591 36.2784V34.5909C140.5 34.6818 140.324 34.767 140.062 34.8466C139.807 34.9205 139.514 34.9858 139.185 35.0426C138.855 35.0937 138.534 35.142 138.222 35.1875C137.909 35.2273 137.648 35.2614 137.438 35.2898C136.943 35.3523 136.491 35.4574 136.082 35.6051C135.679 35.7528 135.355 35.9659 135.111 36.2443C134.872 36.517 134.753 36.8807 134.753 37.3352C134.753 37.9659 134.986 38.4432 135.452 38.767C135.918 39.0852 136.511 39.2443 137.233 39.2443ZM149.082 23.5455V41H146.533V23.5455H149.082ZM152.51 41V27.9091H155.058V41H152.51ZM153.797 25.8892C153.354 25.8892 152.973 25.7415 152.655 25.446C152.342 25.1449 152.186 24.7869 152.186 24.3722C152.186 23.9517 152.342 23.5937 152.655 23.2983C152.973 22.9972 153.354 22.8466 153.797 22.8466C154.24 22.8466 154.618 22.9972 154.93 23.2983C155.249 23.5937 155.408 23.9517 155.408 24.3722C155.408 24.7869 155.249 25.1449 154.93 25.446C154.618 25.7415 154.24 25.8892 153.797 25.8892ZM168.296 31.1051L165.987 31.5142C165.89 31.2187 165.737 30.9375 165.526 30.6705C165.322 30.4034 165.043 30.1847 164.691 30.0142C164.339 29.8437 163.898 29.7585 163.37 29.7585C162.648 29.7585 162.046 29.9205 161.563 30.2443C161.08 30.5625 160.839 30.9744 160.839 31.4801C160.839 31.9176 161.001 32.2699 161.325 32.5369C161.648 32.804 162.171 33.0227 162.893 33.1932L164.972 33.6705C166.177 33.9489 167.075 34.3778 167.665 34.9574C168.256 35.5369 168.552 36.2898 168.552 37.2159C168.552 38 168.325 38.6989 167.87 39.3125C167.421 39.9205 166.793 40.3977 165.987 40.7443C165.185 41.0909 164.256 41.2642 163.2 41.2642C161.734 41.2642 160.538 40.9517 159.612 40.3267C158.685 39.696 158.117 38.8011 157.907 37.642L160.37 37.267C160.523 37.9091 160.839 38.3949 161.316 38.7244C161.793 39.0483 162.415 39.2102 163.183 39.2102C164.018 39.2102 164.685 39.0369 165.185 38.6903C165.685 38.3381 165.935 37.9091 165.935 37.4034C165.935 36.9943 165.782 36.6506 165.475 36.3722C165.174 36.0937 164.711 35.8835 164.086 35.7415L161.87 35.2557C160.648 34.9773 159.745 34.5341 159.16 33.9261C158.58 33.3182 158.29 32.5483 158.29 31.6165C158.29 30.8437 158.506 30.1676 158.938 29.5881C159.37 29.0085 159.967 28.5568 160.728 28.233C161.489 27.9034 162.362 27.7386 163.344 27.7386C164.759 27.7386 165.873 28.0455 166.685 28.6591C167.498 29.267 168.035 30.0824 168.296 31.1051ZM176.996 41.2642C175.706 41.2642 174.595 40.9886 173.663 40.4375C172.737 39.8807 172.021 39.0994 171.516 38.0938C171.016 37.0824 170.766 35.8977 170.766 34.5398C170.766 33.1989 171.016 32.017 171.516 30.9943C172.021 29.9716 172.726 29.1733 173.629 28.5994C174.538 28.0256 175.601 27.7386 176.817 27.7386C177.555 27.7386 178.271 27.8608 178.964 28.1051C179.658 28.3494 180.28 28.733 180.831 29.2557C181.382 29.7784 181.817 30.4574 182.135 31.2926C182.453 32.1222 182.612 33.1307 182.612 34.3182V35.2216H172.206V33.3125H180.115C180.115 32.642 179.979 32.0483 179.706 31.5312C179.433 31.0085 179.05 30.5966 178.555 30.2955C178.067 29.9943 177.493 29.8438 176.834 29.8438C176.118 29.8438 175.493 30.0199 174.959 30.3722C174.43 30.7187 174.021 31.1733 173.732 31.7358C173.447 32.2926 173.305 32.8977 173.305 33.5511V35.0426C173.305 35.9176 173.459 36.6619 173.766 37.2756C174.078 37.8892 174.513 38.358 175.07 38.6818C175.626 39 176.277 39.1591 177.021 39.1591C177.504 39.1591 177.945 39.0909 178.342 38.9545C178.74 38.8125 179.084 38.6023 179.374 38.3239C179.663 38.0455 179.885 37.7017 180.038 37.2926L182.45 37.7273C182.257 38.4375 181.911 39.0597 181.411 39.5938C180.916 40.1222 180.294 40.5341 179.544 40.8295C178.8 41.1193 177.95 41.2642 176.996 41.2642ZM190.34 41.2557C189.283 41.2557 188.34 40.9858 187.511 40.446C186.687 39.9006 186.039 39.125 185.567 38.1193C185.102 37.108 184.869 35.8949 184.869 34.4801C184.869 33.0653 185.104 31.8551 185.576 30.8494C186.053 29.8437 186.707 29.0739 187.536 28.5398C188.366 28.0057 189.306 27.7386 190.357 27.7386C191.17 27.7386 191.823 27.875 192.317 28.1477C192.817 28.4148 193.204 28.7273 193.477 29.0852C193.755 29.4432 193.971 29.7585 194.124 30.0312H194.278V23.5455H196.826V41H194.337V38.9631H194.124C193.971 39.2415 193.749 39.5597 193.46 39.9176C193.175 40.2756 192.783 40.5881 192.283 40.8551C191.783 41.1222 191.136 41.2557 190.34 41.2557ZM190.903 39.0824C191.636 39.0824 192.255 38.8892 192.761 38.5028C193.272 38.1108 193.658 37.5682 193.92 36.875C194.187 36.1818 194.32 35.375 194.32 34.4545C194.32 33.5455 194.19 32.75 193.928 32.0682C193.667 31.3864 193.283 30.8551 192.778 30.4744C192.272 30.0937 191.647 29.9034 190.903 29.9034C190.136 29.9034 189.496 30.1023 188.985 30.5C188.474 30.8977 188.087 31.4403 187.826 32.1278C187.57 32.8153 187.442 33.5909 187.442 34.4545C187.442 35.3295 187.573 36.1165 187.835 36.8153C188.096 37.5142 188.482 38.0682 188.994 38.4773C189.511 38.8807 190.147 39.0824 190.903 39.0824ZM209.653 41L205.8 27.9091H208.434L210.999 37.5227H211.127L213.701 27.9091H216.335L218.891 37.4801H219.019L221.567 27.9091H224.201L220.357 41H217.758L215.099 31.5483H214.903L212.244 41H209.653ZM226.619 41V27.9091H229.168V41H226.619ZM227.906 25.8892C227.463 25.8892 227.082 25.7415 226.764 25.446C226.452 25.1449 226.295 24.7869 226.295 24.3722C226.295 23.9517 226.452 23.5937 226.764 23.2983C227.082 22.9972 227.463 22.8466 227.906 22.8466C228.349 22.8466 228.727 22.9972 229.04 23.2983C229.358 23.5937 229.517 23.9517 229.517 24.3722C229.517 24.7869 229.358 25.1449 229.04 25.446C228.727 25.7415 228.349 25.8892 227.906 25.8892ZM238.707 27.9091V29.9545H231.556V27.9091H238.707ZM233.474 24.7727H236.022V37.1562C236.022 37.6506 236.096 38.0227 236.244 38.2727C236.391 38.517 236.582 38.6847 236.815 38.7756C237.053 38.8608 237.312 38.9034 237.59 38.9034C237.795 38.9034 237.974 38.8892 238.127 38.8608C238.281 38.8324 238.4 38.8097 238.485 38.7926L238.945 40.8977C238.798 40.9545 238.587 41.0114 238.315 41.0682C238.042 41.1307 237.701 41.1648 237.292 41.1705C236.621 41.1818 235.996 41.0625 235.417 40.8125C234.837 40.5625 234.369 40.1761 234.011 39.6534C233.653 39.1307 233.474 38.4744 233.474 37.6847V24.7727ZM244.355 33.2273V41H241.807V23.5455H244.321V30.0398H244.483C244.79 29.3352 245.259 28.7756 245.889 28.3608C246.52 27.946 247.344 27.7386 248.361 27.7386C249.259 27.7386 250.043 27.9233 250.713 28.2926C251.389 28.6619 251.912 29.2131 252.281 29.946C252.656 30.6733 252.844 31.5824 252.844 32.6733V41H250.295V32.9801C250.295 32.0199 250.048 31.2756 249.554 30.7472C249.06 30.2131 248.372 29.946 247.491 29.946C246.889 29.946 246.349 30.0739 245.872 30.3295C245.401 30.5852 245.028 30.9602 244.756 31.4545C244.489 31.9432 244.355 32.5341 244.355 33.2273ZM264.275 41H261.479L267.761 23.5455H270.803L277.085 41H274.289L269.354 26.7159H269.218L264.275 41ZM264.744 34.1648H273.812V36.3807H264.744V34.1648ZM282.239 23.5455V41H279.605V23.5455H282.239Z" fill="black"/>
<g clip-path="url(#clip0_14_168)">
<path opacity="0.979" fill-rule="evenodd" clip-rule="evenodd" d="M35.7197 17.9717C35.7386 17.9717 35.7575 17.9717 35.7764 17.9717C34.3979 21.7861 33.0197 25.5999 31.6416 29.4131C34.4359 29.4036 37.2302 29.4131 40.0244 29.4414C35.75 35.2815 31.4831 41.1249 27.2236 46.9717C27.2048 46.9717 27.1859 46.9717 27.167 46.9717C28.5455 43.1572 29.9237 39.3434 31.3018 35.5303C28.5074 35.5397 25.7131 35.5303 22.9189 35.502C27.1933 29.6619 31.4602 23.8185 35.7197 17.9717Z" fill="#FED83A"/>
</g>
<defs>
<clipPath id="clip0_14_168">
<rect width="29" height="29" fill="white" transform="translate(17 18)"/>
</clipPath>
</defs>
</svg>
