<svg width="1005" height="140" viewBox="0 0 1005 140" fill="none" xmlns="http://www.w3.org/2000/svg">
<path d="M214.982 30.3636C214.982 36.3191 213.866 41.42 211.635 45.6662C209.422 49.8944 206.399 53.133 202.567 55.3821C198.752 57.6312 194.425 58.7557 189.585 58.7557C184.745 58.7557 180.409 57.6312 176.577 55.3821C172.762 53.1151 169.74 49.8674 167.509 45.6392C165.295 41.393 164.189 36.3011 164.189 30.3636C164.189 24.4081 165.295 19.3163 167.509 15.0881C169.74 10.8419 172.762 7.59422 176.577 5.34517C180.409 3.09611 184.745 1.97159 189.585 1.97159C194.425 1.97159 198.752 3.09611 202.567 5.34517C206.399 7.59422 209.422 10.8419 211.635 15.0881C213.866 19.3163 214.982 24.4081 214.982 30.3636ZM204.915 30.3636C204.915 26.1714 204.258 22.6359 202.945 19.7571C201.649 16.8603 199.85 14.6742 197.547 13.1989C195.244 11.7055 192.59 10.9588 189.585 10.9588C186.58 10.9588 183.927 11.7055 181.624 13.1989C179.321 14.6742 177.512 16.8603 176.199 19.7571C174.903 22.6359 174.256 26.1714 174.256 30.3636C174.256 34.5559 174.903 38.1004 176.199 40.9972C177.512 43.8759 179.321 46.062 181.624 47.5554C183.927 49.0308 186.58 49.7685 189.585 49.7685C192.59 49.7685 195.244 49.0308 197.547 47.5554C199.85 46.062 201.649 43.8759 202.945 40.9972C204.258 38.1004 204.915 34.5559 204.915 30.3636ZM233.786 33.7102V58H224.016V16.5455H233.354V23.5895H233.84C234.793 21.2685 236.314 19.4242 238.401 18.0568C240.506 16.6894 243.106 16.0057 246.201 16.0057C249.061 16.0057 251.553 16.6174 253.676 17.8409C255.818 19.0644 257.473 20.8366 258.642 23.1577C259.83 25.4787 260.415 28.2945 260.397 31.6051V58H250.627V33.1165C250.627 30.3456 249.907 28.1776 248.468 26.6122C247.046 25.0469 245.076 24.2642 242.557 24.2642C240.848 24.2642 239.328 24.642 237.996 25.3977C236.683 26.1354 235.648 27.206 234.892 28.6094C234.155 30.0128 233.786 31.7131 233.786 33.7102ZM288.681 58.8097C284.525 58.8097 280.935 57.946 277.912 56.2188C274.908 54.4735 272.596 52.0085 270.976 48.8239C269.357 45.6212 268.547 41.8518 268.547 37.5156C268.547 33.2514 269.357 29.509 270.976 26.2884C272.614 23.0497 274.899 20.5308 277.831 18.7315C280.764 16.9143 284.21 16.0057 288.168 16.0057C290.723 16.0057 293.134 16.4195 295.401 17.2472C297.686 18.0568 299.701 19.3163 301.446 21.0256C303.21 22.7348 304.595 24.9119 305.603 27.5568C306.61 30.1837 307.114 33.3144 307.114 36.9489V39.9446H273.135V33.3594H297.749C297.731 31.4882 297.326 29.8239 296.534 28.3665C295.743 26.8911 294.636 25.7306 293.215 24.8849C291.811 24.0393 290.174 23.6165 288.303 23.6165C286.306 23.6165 284.551 24.1023 283.04 25.0739C281.529 26.0275 280.35 27.2869 279.505 28.8523C278.677 30.3996 278.254 32.0999 278.236 33.9531V39.7017C278.236 42.1127 278.677 44.1818 279.559 45.9091C280.44 47.6184 281.673 48.9318 283.256 49.8494C284.839 50.7491 286.693 51.1989 288.816 51.1989C290.237 51.1989 291.524 51.0009 292.675 50.6051C293.827 50.1913 294.825 49.5885 295.671 48.7969C296.516 48.0052 297.155 47.0246 297.587 45.8551L306.709 46.8807C306.133 49.2917 305.036 51.3968 303.417 53.196C301.815 54.9773 299.764 56.3627 297.263 57.3523C294.762 58.3239 291.901 58.8097 288.681 58.8097ZM366.995 27.5028L358.089 28.4744C357.837 27.5748 357.396 26.7292 356.766 25.9375C356.155 25.1458 355.327 24.5071 354.283 24.0213C353.24 23.5355 351.962 23.2926 350.451 23.2926C348.418 23.2926 346.709 23.7334 345.323 24.6151C343.956 25.4967 343.281 26.6392 343.299 28.0426C343.281 29.2481 343.722 30.2287 344.621 30.9844C345.539 31.7401 347.05 32.3608 349.156 32.8466L356.227 34.358C360.149 35.2036 363.064 36.544 364.971 38.3793C366.896 40.2145 367.868 42.6165 367.886 45.5852C367.868 48.1941 367.103 50.4972 365.592 52.4943C364.098 54.4735 362.02 56.0208 359.357 57.1364C356.694 58.2519 353.636 58.8097 350.181 58.8097C345.107 58.8097 341.023 57.7481 337.928 55.625C334.834 53.4839 332.989 50.5062 332.396 46.6918L341.923 45.7741C342.354 47.6454 343.272 49.0578 344.675 50.0114C346.079 50.965 347.905 51.4418 350.154 51.4418C352.475 51.4418 354.337 50.965 355.741 50.0114C357.162 49.0578 357.873 47.8793 357.873 46.4759C357.873 45.2884 357.414 44.3078 356.496 43.5341C355.597 42.7604 354.193 42.1667 352.286 41.7528L345.215 40.2685C341.239 39.4408 338.297 38.0464 336.39 36.0852C334.483 34.1061 333.538 31.6051 333.556 28.5824C333.538 26.0275 334.231 23.8144 335.634 21.9432C337.056 20.054 339.026 18.5966 341.545 17.571C344.082 16.5275 347.005 16.0057 350.316 16.0057C355.174 16.0057 358.997 17.0402 361.786 19.1094C364.593 21.1785 366.329 23.9763 366.995 27.5028ZM396.642 16.5455V24.1023H372.811V16.5455H396.642ZM378.695 6.61364H388.464V45.5312C388.464 46.8447 388.662 47.8523 389.058 48.554C389.472 49.2377 390.012 49.7055 390.678 49.9574C391.343 50.2093 392.081 50.3352 392.891 50.3352C393.502 50.3352 394.06 50.2902 394.564 50.2003C395.086 50.1103 395.482 50.0294 395.751 49.9574L397.398 57.5952C396.876 57.7751 396.129 57.973 395.158 58.1889C394.204 58.4048 393.035 58.5308 391.649 58.5668C389.202 58.6387 386.998 58.2699 385.037 57.4602C383.076 56.6326 381.519 55.3551 380.368 53.6278C379.234 51.9006 378.677 49.7415 378.695 47.1506V6.61364ZM422.45 58.8097C418.402 58.8097 414.893 57.919 411.924 56.1378C408.956 54.3565 406.653 51.8646 405.015 48.6619C403.396 45.4593 402.586 41.7169 402.586 37.4347C402.586 33.1525 403.396 29.401 405.015 26.1804C406.653 22.9598 408.956 20.4588 411.924 18.6776C414.893 16.8963 418.402 16.0057 422.45 16.0057C426.498 16.0057 430.007 16.8963 432.975 18.6776C435.944 20.4588 438.238 22.9598 439.858 26.1804C441.495 29.401 442.314 33.1525 442.314 37.4347C442.314 41.7169 441.495 45.4593 439.858 48.6619C438.238 51.8646 435.944 54.3565 432.975 56.1378C430.007 57.919 426.498 58.8097 422.45 58.8097ZM422.504 50.983C424.699 50.983 426.534 50.3802 428.01 49.1747C429.485 47.9512 430.583 46.3139 431.302 44.2628C432.04 42.2116 432.409 39.9266 432.409 37.4077C432.409 34.8707 432.04 32.5767 431.302 30.5256C430.583 28.4564 429.485 26.8101 428.01 25.5866C426.534 24.3632 424.699 23.7514 422.504 23.7514C420.255 23.7514 418.384 24.3632 416.89 25.5866C415.415 26.8101 414.308 28.4564 413.571 30.5256C412.851 32.5767 412.491 34.8707 412.491 37.4077C412.491 39.9266 412.851 42.2116 413.571 44.2628C414.308 46.3139 415.415 47.9512 416.89 49.1747C418.384 50.3802 420.255 50.983 422.504 50.983ZM450.606 73.5455V16.5455H460.214V23.4006H460.781C461.284 22.393 461.995 21.3224 462.913 20.1889C463.83 19.0374 465.072 18.0568 466.637 17.2472C468.202 16.4195 470.2 16.0057 472.629 16.0057C475.831 16.0057 478.719 16.8243 481.292 18.4616C483.883 20.081 485.934 22.483 487.445 25.6676C488.975 28.8343 489.739 32.7206 489.739 37.3267C489.739 41.8788 488.993 45.7472 487.499 48.9318C486.006 52.1165 483.973 54.5455 481.4 56.2188C478.827 57.892 475.912 58.7287 472.656 58.7287C470.281 58.7287 468.31 58.3329 466.745 57.5412C465.18 56.7495 463.92 55.7959 462.967 54.6804C462.031 53.5469 461.302 52.4763 460.781 51.4688H460.376V73.5455H450.606ZM460.187 37.2727C460.187 39.9536 460.565 42.3016 461.32 44.3168C462.094 46.3319 463.201 47.9062 464.64 49.0398C466.097 50.1553 467.861 50.7131 469.93 50.7131C472.089 50.7131 473.897 50.1373 475.354 48.9858C476.812 47.8163 477.909 46.224 478.647 44.2088C479.403 42.1757 479.781 39.8636 479.781 37.2727C479.781 34.6998 479.412 32.4148 478.674 30.4176C477.936 28.4205 476.839 26.8551 475.381 25.7216C473.924 24.5881 472.107 24.0213 469.93 24.0213C467.843 24.0213 466.07 24.5701 464.613 25.6676C463.156 26.7652 462.049 28.3035 461.293 30.2827C460.556 32.2618 460.187 34.5919 460.187 37.2727ZM549.722 27.5028L540.815 28.4744C540.563 27.5748 540.123 26.7292 539.493 25.9375C538.881 25.1458 538.054 24.5071 537.01 24.0213C535.966 23.5355 534.689 23.2926 533.178 23.2926C531.144 23.2926 529.435 23.7334 528.05 24.6151C526.682 25.4967 526.008 26.6392 526.026 28.0426C526.008 29.2481 526.448 30.2287 527.348 30.9844C528.266 31.7401 529.777 32.3608 531.882 32.8466L538.953 34.358C542.875 35.2036 545.79 36.544 547.697 38.3793C549.623 40.2145 550.594 42.6165 550.612 45.5852C550.594 48.1941 549.83 50.4972 548.318 52.4943C546.825 54.4735 544.747 56.0208 542.084 57.1364C539.421 58.2519 536.362 58.8097 532.908 58.8097C527.834 58.8097 523.75 57.7481 520.655 55.625C517.56 53.4839 515.716 50.5062 515.122 46.6918L524.649 45.7741C525.081 47.6454 525.999 49.0578 527.402 50.0114C528.805 50.965 530.632 51.4418 532.881 51.4418C535.202 51.4418 537.064 50.965 538.467 50.0114C539.889 49.0578 540.599 47.8793 540.599 46.4759C540.599 45.2884 540.141 44.3078 539.223 43.5341C538.323 42.7604 536.92 42.1667 535.013 41.7528L527.942 40.2685C523.965 39.4408 521.024 38.0464 519.116 36.0852C517.209 34.1061 516.265 31.6051 516.283 28.5824C516.265 26.0275 516.957 23.8144 518.361 21.9432C519.782 20.054 521.752 18.5966 524.271 17.571C526.808 16.5275 529.732 16.0057 533.043 16.0057C537.901 16.0057 541.724 17.0402 544.513 19.1094C547.32 21.1785 549.056 23.9763 549.722 27.5028ZM576.751 58.8097C572.702 58.8097 569.194 57.919 566.225 56.1378C563.256 54.3565 560.953 51.8646 559.316 48.6619C557.697 45.4593 556.887 41.7169 556.887 37.4347C556.887 33.1525 557.697 29.401 559.316 26.1804C560.953 22.9598 563.256 20.4588 566.225 18.6776C569.194 16.8963 572.702 16.0057 576.751 16.0057C580.799 16.0057 584.308 16.8963 587.276 18.6776C590.245 20.4588 592.539 22.9598 594.158 26.1804C595.796 29.401 596.614 33.1525 596.614 37.4347C596.614 41.7169 595.796 45.4593 594.158 48.6619C592.539 51.8646 590.245 54.3565 587.276 56.1378C584.308 57.919 580.799 58.8097 576.751 58.8097ZM576.805 50.983C579 50.983 580.835 50.3802 582.31 49.1747C583.786 47.9512 584.883 46.3139 585.603 44.2628C586.341 42.2116 586.71 39.9266 586.71 37.4077C586.71 34.8707 586.341 32.5767 585.603 30.5256C584.883 28.4564 583.786 26.8101 582.31 25.5866C580.835 24.3632 579 23.7514 576.805 23.7514C574.556 23.7514 572.684 24.3632 571.191 25.5866C569.716 26.8101 568.609 28.4564 567.871 30.5256C567.152 32.5767 566.792 34.8707 566.792 37.4077C566.792 39.9266 567.152 42.2116 567.871 44.2628C568.609 46.3139 569.716 47.9512 571.191 49.1747C572.684 50.3802 574.556 50.983 576.805 50.983ZM614.676 2.72727V58H604.907V2.72727H614.676ZM651.145 40.5653V16.5455H660.915V58H651.442V50.6321H651.01C650.074 52.9531 648.536 54.8513 646.395 56.3267C644.272 57.8021 641.654 58.5398 638.541 58.5398C635.824 58.5398 633.422 57.937 631.335 56.7315C629.266 55.508 627.647 53.7358 626.477 51.4148C625.308 49.0758 624.723 46.2509 624.723 42.9403V16.5455H634.493V41.429C634.493 44.0559 635.213 46.143 636.652 47.6903C638.091 49.2377 639.981 50.0114 642.32 50.0114C643.759 50.0114 645.153 49.6605 646.503 48.9588C647.852 48.2571 648.959 47.2135 649.822 45.8281C650.704 44.4247 651.145 42.6705 651.145 40.5653ZM691.662 16.5455V24.1023H667.831V16.5455H691.662ZM673.714 6.61364H683.484V45.5312C683.484 46.8447 683.682 47.8523 684.078 48.554C684.492 49.2377 685.031 49.7055 685.697 49.9574C686.363 50.2093 687.1 50.3352 687.91 50.3352C688.522 50.3352 689.08 50.2902 689.583 50.2003C690.105 50.1103 690.501 50.0294 690.771 49.9574L692.417 57.5952C691.895 57.7751 691.149 57.973 690.177 58.1889C689.224 58.4048 688.054 58.5308 686.669 58.5668C684.222 58.6387 682.018 58.2699 680.056 57.4602C678.095 56.6326 676.539 55.3551 675.387 53.6278C674.254 51.9006 673.696 49.7415 673.714 47.1506V6.61364ZM699.832 58V16.5455H709.602V58H699.832ZM704.744 10.6619C703.197 10.6619 701.866 10.1491 700.75 9.12358C699.634 8.08002 699.077 6.82954 699.077 5.37216C699.077 3.89678 699.634 2.6463 700.75 1.62073C701.866 0.577176 703.197 0.0553961 704.744 0.0553961C706.31 0.0553961 707.641 0.577176 708.739 1.62073C709.854 2.6463 710.412 3.89678 710.412 5.37216C710.412 6.82954 709.854 8.08002 708.739 9.12358C707.641 10.1491 706.31 10.6619 704.744 10.6619ZM737.731 58.8097C733.683 58.8097 730.174 57.919 727.206 56.1378C724.237 54.3565 721.934 51.8646 720.297 48.6619C718.677 45.4593 717.868 41.7169 717.868 37.4347C717.868 33.1525 718.677 29.401 720.297 26.1804C721.934 22.9598 724.237 20.4588 727.206 18.6776C730.174 16.8963 733.683 16.0057 737.731 16.0057C741.779 16.0057 745.288 16.8963 748.257 18.6776C751.225 20.4588 753.52 22.9598 755.139 26.1804C756.776 29.401 757.595 33.1525 757.595 37.4347C757.595 41.7169 756.776 45.4593 755.139 48.6619C753.52 51.8646 751.225 54.3565 748.257 56.1378C745.288 57.919 741.779 58.8097 737.731 58.8097ZM737.785 50.983C739.98 50.983 741.815 50.3802 743.291 49.1747C744.766 47.9512 745.864 46.3139 746.583 44.2628C747.321 42.2116 747.69 39.9266 747.69 37.4077C747.69 34.8707 747.321 32.5767 746.583 30.5256C745.864 28.4564 744.766 26.8101 743.291 25.5866C741.815 24.3632 739.98 23.7514 737.785 23.7514C735.536 23.7514 733.665 24.3632 732.172 25.5866C730.696 26.8101 729.59 28.4564 728.852 30.5256C728.132 32.5767 727.772 34.8707 727.772 37.4077C727.772 39.9266 728.132 42.2116 728.852 44.2628C729.59 46.3139 730.696 47.9512 732.172 49.1747C733.665 50.3802 735.536 50.983 737.785 50.983ZM775.657 33.7102V58H765.887V16.5455H775.225V23.5895H775.711C776.665 21.2685 778.185 19.4242 780.272 18.0568C782.377 16.6894 784.977 16.0057 788.072 16.0057C790.933 16.0057 793.424 16.6174 795.548 17.8409C797.689 19.0644 799.344 20.8366 800.513 23.1577C801.701 25.4787 802.286 28.2945 802.268 31.6051V58H792.498V33.1165C792.498 30.3456 791.778 28.1776 790.339 26.6122C788.917 25.0469 786.947 24.2642 784.428 24.2642C782.719 24.2642 781.199 24.642 779.867 25.3977C778.554 26.1354 777.519 27.206 776.763 28.6094C776.026 30.0128 775.657 31.7131 775.657 33.7102Z" fill="#0691F8"/>
<path d="M0.113636 135V88.4545H28.9773V94.5H7.13636V108.682H26.9091V114.705H7.13636V135H0.113636ZM49.2102 135.705C45.9375 135.705 43.0814 134.955 40.642 133.455C38.2027 131.955 36.3087 129.856 34.9602 127.159C33.6117 124.462 32.9375 121.311 32.9375 117.705C32.9375 114.083 33.6117 110.917 34.9602 108.205C36.3087 105.492 38.2027 103.386 40.642 101.886C43.0814 100.386 45.9375 99.6364 49.2102 99.6364C52.483 99.6364 55.339 100.386 57.7784 101.886C60.2178 103.386 62.1117 105.492 63.4602 108.205C64.8087 110.917 65.483 114.083 65.483 117.705C65.483 121.311 64.8087 124.462 63.4602 127.159C62.1117 129.856 60.2178 131.955 57.7784 133.455C55.339 134.955 52.483 135.705 49.2102 135.705ZM49.233 130C51.3542 130 53.1117 129.439 54.5057 128.318C55.8996 127.197 56.9299 125.705 57.5966 123.841C58.2784 121.977 58.6193 119.924 58.6193 117.682C58.6193 115.455 58.2784 113.409 57.5966 111.545C56.9299 109.667 55.8996 108.159 54.5057 107.023C53.1117 105.886 51.3542 105.318 49.233 105.318C47.0966 105.318 45.3239 105.886 43.9148 107.023C42.5208 108.159 41.483 109.667 40.8011 111.545C40.1345 113.409 39.8011 115.455 39.8011 117.682C39.8011 119.924 40.1345 121.977 40.8011 123.841C41.483 125.705 42.5208 127.197 43.9148 128.318C45.3239 129.439 47.0966 130 49.233 130ZM73.0682 135V100.091H79.6364V105.636H80C80.6364 103.758 81.7576 102.28 83.3636 101.205C84.9848 100.114 86.8182 99.5682 88.8636 99.5682C89.2879 99.5682 89.7879 99.5833 90.3636 99.6136C90.9545 99.6439 91.4167 99.6818 91.75 99.7273V106.227C91.4773 106.152 90.9924 106.068 90.2955 105.977C89.5985 105.871 88.9015 105.818 88.2045 105.818C86.5985 105.818 85.1667 106.159 83.9091 106.841C82.6667 107.508 81.6818 108.439 80.9545 109.636C80.2273 110.818 79.8636 112.167 79.8636 113.682V135H73.0682ZM119.045 135H111.591L128.341 88.4545H136.455L153.205 135H145.75L132.591 96.9091H132.227L119.045 135ZM120.295 116.773H144.477V122.682H120.295V116.773ZM166.176 88.4545V135H159.381V88.4545H166.176ZM182.114 88.4545V135H175.318V88.4545H182.114ZM215.761 88.4545V135H208.739V88.4545H215.761ZM232.239 114.273V135H225.443V100.091H231.966V105.773H232.398C233.201 103.924 234.458 102.439 236.17 101.318C237.898 100.197 240.072 99.6364 242.693 99.6364C245.072 99.6364 247.155 100.136 248.943 101.136C250.731 102.121 252.117 103.591 253.102 105.545C254.087 107.5 254.58 109.917 254.58 112.795V135H247.784V113.614C247.784 111.083 247.125 109.106 245.807 107.682C244.489 106.242 242.678 105.523 240.375 105.523C238.799 105.523 237.398 105.864 236.17 106.545C234.958 107.227 233.996 108.227 233.284 109.545C232.587 110.848 232.239 112.424 232.239 114.273ZM289.852 108.614L283.693 109.705C283.436 108.917 283.027 108.167 282.466 107.455C281.92 106.742 281.178 106.159 280.239 105.705C279.299 105.25 278.125 105.023 276.716 105.023C274.792 105.023 273.186 105.455 271.898 106.318C270.61 107.167 269.966 108.265 269.966 109.614C269.966 110.78 270.398 111.72 271.261 112.432C272.125 113.144 273.519 113.727 275.443 114.182L280.989 115.455C284.201 116.197 286.595 117.341 288.17 118.886C289.746 120.432 290.534 122.439 290.534 124.909C290.534 127 289.928 128.864 288.716 130.5C287.519 132.121 285.845 133.394 283.693 134.318C281.557 135.242 279.08 135.705 276.261 135.705C272.352 135.705 269.163 134.871 266.693 133.205C264.223 131.523 262.708 129.136 262.148 126.045L268.716 125.045C269.125 126.758 269.966 128.053 271.239 128.932C272.511 129.795 274.17 130.227 276.216 130.227C278.443 130.227 280.223 129.765 281.557 128.841C282.89 127.902 283.557 126.758 283.557 125.409C283.557 124.318 283.148 123.402 282.33 122.659C281.527 121.917 280.292 121.356 278.625 120.977L272.716 119.682C269.458 118.939 267.049 117.758 265.489 116.136C263.943 114.515 263.17 112.462 263.17 109.977C263.17 107.917 263.746 106.114 264.898 104.568C266.049 103.023 267.64 101.818 269.67 100.955C271.701 100.076 274.027 99.6364 276.648 99.6364C280.42 99.6364 283.39 100.455 285.557 102.091C287.723 103.712 289.155 105.886 289.852 108.614ZM320.119 120.523V100.091H326.938V135H320.256V128.955H319.892C319.089 130.818 317.801 132.371 316.028 133.614C314.271 134.841 312.081 135.455 309.46 135.455C307.218 135.455 305.233 134.962 303.506 133.977C301.794 132.977 300.445 131.5 299.46 129.545C298.491 127.591 298.006 125.174 298.006 122.295V100.091H304.801V121.477C304.801 123.856 305.46 125.75 306.778 127.159C308.097 128.568 309.809 129.273 311.915 129.273C313.188 129.273 314.453 128.955 315.71 128.318C316.983 127.682 318.036 126.72 318.869 125.432C319.718 124.144 320.134 122.508 320.119 120.523ZM336.068 135V100.091H342.636V105.636H343C343.636 103.758 344.758 102.28 346.364 101.205C347.985 100.114 349.818 99.5682 351.864 99.5682C352.288 99.5682 352.788 99.5833 353.364 99.6136C353.955 99.6439 354.417 99.6818 354.75 99.7273V106.227C354.477 106.152 353.992 106.068 353.295 105.977C352.598 105.871 351.902 105.818 351.205 105.818C349.598 105.818 348.167 106.159 346.909 106.841C345.667 107.508 344.682 108.439 343.955 109.636C343.227 110.818 342.864 112.167 342.864 113.682V135H336.068ZM370.477 135.773C368.265 135.773 366.265 135.364 364.477 134.545C362.689 133.712 361.273 132.508 360.227 130.932C359.197 129.356 358.682 127.424 358.682 125.136C358.682 123.167 359.061 121.545 359.818 120.273C360.576 119 361.598 117.992 362.886 117.25C364.174 116.508 365.614 115.947 367.205 115.568C368.795 115.189 370.417 114.902 372.068 114.705C374.159 114.462 375.856 114.265 377.159 114.114C378.462 113.947 379.409 113.682 380 113.318C380.591 112.955 380.886 112.364 380.886 111.545V111.386C380.886 109.402 380.326 107.864 379.205 106.773C378.098 105.682 376.447 105.136 374.25 105.136C371.962 105.136 370.159 105.644 368.841 106.659C367.538 107.659 366.636 108.773 366.136 110L359.75 108.545C360.508 106.424 361.614 104.712 363.068 103.409C364.538 102.091 366.227 101.136 368.136 100.545C370.045 99.9394 372.053 99.6364 374.159 99.6364C375.553 99.6364 377.03 99.803 378.591 100.136C380.167 100.455 381.636 101.045 383 101.909C384.379 102.773 385.508 104.008 386.386 105.614C387.265 107.205 387.705 109.273 387.705 111.818V135H381.068V130.227H380.795C380.356 131.106 379.697 131.97 378.818 132.818C377.939 133.667 376.811 134.371 375.432 134.932C374.053 135.492 372.402 135.773 370.477 135.773ZM371.955 130.318C373.833 130.318 375.439 129.947 376.773 129.205C378.121 128.462 379.144 127.492 379.841 126.295C380.553 125.083 380.909 123.788 380.909 122.409V117.909C380.667 118.152 380.197 118.379 379.5 118.591C378.818 118.788 378.038 118.962 377.159 119.114C376.28 119.25 375.424 119.379 374.591 119.5C373.758 119.606 373.061 119.697 372.5 119.773C371.182 119.939 369.977 120.22 368.886 120.614C367.811 121.008 366.947 121.576 366.295 122.318C365.659 123.045 365.341 124.015 365.341 125.227C365.341 126.909 365.962 128.182 367.205 129.045C368.447 129.894 370.03 130.318 371.955 130.318ZM403.551 114.273V135H396.756V100.091H403.278V105.773H403.71C404.513 103.924 405.771 102.439 407.483 101.318C409.21 100.197 411.384 99.6364 414.006 99.6364C416.384 99.6364 418.468 100.136 420.256 101.136C422.044 102.121 423.43 103.591 424.415 105.545C425.4 107.5 425.892 109.917 425.892 112.795V135H419.097V113.614C419.097 111.083 418.438 109.106 417.119 107.682C415.801 106.242 413.991 105.523 411.688 105.523C410.112 105.523 408.71 105.864 407.483 106.545C406.271 107.227 405.309 108.227 404.597 109.545C403.9 110.848 403.551 112.424 403.551 114.273ZM449.71 135.705C446.331 135.705 443.422 134.939 440.983 133.409C438.559 131.864 436.695 129.735 435.392 127.023C434.089 124.311 433.438 121.205 433.438 117.705C433.438 114.159 434.104 111.03 435.438 108.318C436.771 105.591 438.65 103.462 441.074 101.932C443.498 100.402 446.354 99.6364 449.642 99.6364C452.294 99.6364 454.657 100.129 456.733 101.114C458.809 102.083 460.483 103.447 461.756 105.205C463.044 106.962 463.809 109.015 464.051 111.364H457.438C457.074 109.727 456.241 108.318 454.938 107.136C453.65 105.955 451.922 105.364 449.756 105.364C447.862 105.364 446.203 105.864 444.778 106.864C443.369 107.848 442.271 109.258 441.483 111.091C440.695 112.909 440.301 115.061 440.301 117.545C440.301 120.091 440.688 122.288 441.46 124.136C442.233 125.985 443.324 127.417 444.733 128.432C446.157 129.447 447.831 129.955 449.756 129.955C451.044 129.955 452.21 129.72 453.256 129.25C454.316 128.765 455.203 128.076 455.915 127.182C456.642 126.288 457.15 125.212 457.438 123.955H464.051C463.809 126.212 463.074 128.227 461.847 130C460.619 131.773 458.975 133.167 456.915 134.182C454.869 135.197 452.468 135.705 449.71 135.705ZM486.364 135.705C482.924 135.705 479.962 134.97 477.477 133.5C475.008 132.015 473.098 129.932 471.75 127.25C470.417 124.553 469.75 121.394 469.75 117.773C469.75 114.197 470.417 111.045 471.75 108.318C473.098 105.591 474.977 103.462 477.386 101.932C479.811 100.402 482.644 99.6364 485.886 99.6364C487.856 99.6364 489.765 99.9621 491.614 100.614C493.462 101.265 495.121 102.288 496.591 103.682C498.061 105.076 499.22 106.886 500.068 109.114C500.917 111.326 501.341 114.015 501.341 117.182V119.591H473.591V114.5H494.682C494.682 112.712 494.318 111.129 493.591 109.75C492.864 108.356 491.841 107.258 490.523 106.455C489.22 105.652 487.689 105.25 485.932 105.25C484.023 105.25 482.356 105.72 480.932 106.659C479.523 107.583 478.432 108.795 477.659 110.295C476.902 111.78 476.523 113.394 476.523 115.136V119.114C476.523 121.447 476.932 123.432 477.75 125.068C478.583 126.705 479.742 127.955 481.227 128.818C482.712 129.667 484.447 130.091 486.432 130.091C487.72 130.091 488.894 129.909 489.955 129.545C491.015 129.167 491.932 128.606 492.705 127.864C493.477 127.121 494.068 126.205 494.477 125.114L500.909 126.273C500.394 128.167 499.47 129.826 498.136 131.25C496.818 132.659 495.159 133.758 493.159 134.545C491.174 135.318 488.909 135.705 486.364 135.705ZM526.364 135V88.4545H542.955C546.561 88.4545 549.553 89.0758 551.932 90.3182C554.326 91.5606 556.114 93.2803 557.295 95.4773C558.477 97.6591 559.068 100.182 559.068 103.045C559.068 105.894 558.47 108.402 557.273 110.568C556.091 112.72 554.303 114.394 551.909 115.591C549.53 116.788 546.538 117.386 542.932 117.386H530.364V111.341H542.295C544.568 111.341 546.417 111.015 547.841 110.364C549.28 109.712 550.333 108.765 551 107.523C551.667 106.28 552 104.788 552 103.045C552 101.288 551.659 99.7651 550.977 98.4773C550.311 97.1894 549.258 96.2045 547.818 95.5227C546.394 94.8258 544.523 94.4773 542.205 94.4773H533.386V135H526.364ZM549.341 114L560.841 135H552.841L541.568 114H549.341ZM581.676 135.705C578.237 135.705 575.275 134.97 572.79 133.5C570.32 132.015 568.411 129.932 567.062 127.25C565.729 124.553 565.062 121.394 565.062 117.773C565.062 114.197 565.729 111.045 567.062 108.318C568.411 105.591 570.29 103.462 572.699 101.932C575.123 100.402 577.956 99.6364 581.199 99.6364C583.169 99.6364 585.078 99.9621 586.926 100.614C588.775 101.265 590.434 102.288 591.903 103.682C593.373 105.076 594.532 106.886 595.381 109.114C596.229 111.326 596.653 114.015 596.653 117.182V119.591H568.903V114.5H589.994C589.994 112.712 589.631 111.129 588.903 109.75C588.176 108.356 587.153 107.258 585.835 106.455C584.532 105.652 583.002 105.25 581.244 105.25C579.335 105.25 577.669 105.72 576.244 106.659C574.835 107.583 573.744 108.795 572.972 110.295C572.214 111.78 571.835 113.394 571.835 115.136V119.114C571.835 121.447 572.244 123.432 573.062 125.068C573.896 126.705 575.055 127.955 576.54 128.818C578.025 129.667 579.759 130.091 581.744 130.091C583.032 130.091 584.206 129.909 585.267 129.545C586.328 129.167 587.244 128.606 588.017 127.864C588.79 127.121 589.381 126.205 589.79 125.114L596.222 126.273C595.706 128.167 594.782 129.826 593.449 131.25C592.131 132.659 590.472 133.758 588.472 134.545C586.487 135.318 584.222 135.705 581.676 135.705ZM610.989 88.4545V135H604.193V88.4545H610.989ZM630.29 135.773C628.078 135.773 626.078 135.364 624.29 134.545C622.502 133.712 621.085 132.508 620.04 130.932C619.009 129.356 618.494 127.424 618.494 125.136C618.494 123.167 618.873 121.545 619.631 120.273C620.388 119 621.411 117.992 622.699 117.25C623.987 116.508 625.426 115.947 627.017 115.568C628.608 115.189 630.229 114.902 631.881 114.705C633.972 114.462 635.669 114.265 636.972 114.114C638.275 113.947 639.222 113.682 639.812 113.318C640.403 112.955 640.699 112.364 640.699 111.545V111.386C640.699 109.402 640.138 107.864 639.017 106.773C637.911 105.682 636.259 105.136 634.062 105.136C631.775 105.136 629.972 105.644 628.653 106.659C627.35 107.659 626.449 108.773 625.949 110L619.562 108.545C620.32 106.424 621.426 104.712 622.881 103.409C624.35 102.091 626.04 101.136 627.949 100.545C629.858 99.9394 631.866 99.6364 633.972 99.6364C635.366 99.6364 636.843 99.803 638.403 100.136C639.979 100.455 641.449 101.045 642.812 101.909C644.191 102.773 645.32 104.008 646.199 105.614C647.078 107.205 647.517 109.273 647.517 111.818V135H640.881V130.227H640.608C640.169 131.106 639.509 131.97 638.631 132.818C637.752 133.667 636.623 134.371 635.244 134.932C633.866 135.492 632.214 135.773 630.29 135.773ZM631.767 130.318C633.646 130.318 635.252 129.947 636.585 129.205C637.934 128.462 638.956 127.492 639.653 126.295C640.366 125.083 640.722 123.788 640.722 122.409V117.909C640.479 118.152 640.009 118.379 639.312 118.591C638.631 118.788 637.85 118.962 636.972 119.114C636.093 119.25 635.237 119.379 634.403 119.5C633.57 119.606 632.873 119.697 632.312 119.773C630.994 119.939 629.79 120.22 628.699 120.614C627.623 121.008 626.759 121.576 626.108 122.318C625.472 123.045 625.153 124.015 625.153 125.227C625.153 126.909 625.775 128.182 627.017 129.045C628.259 129.894 629.843 130.318 631.767 130.318ZM672.864 100.091V105.545H653.795V100.091H672.864ZM658.909 91.7273H665.705V124.75C665.705 126.068 665.902 127.061 666.295 127.727C666.689 128.379 667.197 128.826 667.818 129.068C668.455 129.295 669.144 129.409 669.886 129.409C670.432 129.409 670.909 129.371 671.318 129.295C671.727 129.22 672.045 129.159 672.273 129.114L673.5 134.727C673.106 134.879 672.545 135.03 671.818 135.182C671.091 135.348 670.182 135.439 669.091 135.455C667.303 135.485 665.636 135.167 664.091 134.5C662.545 133.833 661.295 132.803 660.341 131.409C659.386 130.015 658.909 128.265 658.909 126.159V91.7273ZM695.051 135.705C691.612 135.705 688.65 134.97 686.165 133.5C683.695 132.015 681.786 129.932 680.438 127.25C679.104 124.553 678.438 121.394 678.438 117.773C678.438 114.197 679.104 111.045 680.438 108.318C681.786 105.591 683.665 103.462 686.074 101.932C688.498 100.402 691.331 99.6364 694.574 99.6364C696.544 99.6364 698.453 99.9621 700.301 100.614C702.15 101.265 703.809 102.288 705.278 103.682C706.748 105.076 707.907 106.886 708.756 109.114C709.604 111.326 710.028 114.015 710.028 117.182V119.591H682.278V114.5H703.369C703.369 112.712 703.006 111.129 702.278 109.75C701.551 108.356 700.528 107.258 699.21 106.455C697.907 105.652 696.377 105.25 694.619 105.25C692.71 105.25 691.044 105.72 689.619 106.659C688.21 107.583 687.119 108.795 686.347 110.295C685.589 111.78 685.21 113.394 685.21 115.136V119.114C685.21 121.447 685.619 123.432 686.438 125.068C687.271 126.705 688.43 127.955 689.915 128.818C691.4 129.667 693.134 130.091 695.119 130.091C696.407 130.091 697.581 129.909 698.642 129.545C699.703 129.167 700.619 128.606 701.392 127.864C702.165 127.121 702.756 126.205 703.165 125.114L709.597 126.273C709.081 128.167 708.157 129.826 706.824 131.25C705.506 132.659 703.847 133.758 701.847 134.545C699.862 135.318 697.597 135.705 695.051 135.705ZM730.636 135.682C727.818 135.682 725.303 134.962 723.091 133.523C720.894 132.068 719.167 130 717.909 127.318C716.667 124.621 716.045 121.386 716.045 117.614C716.045 113.841 716.674 110.614 717.932 107.932C719.205 105.25 720.947 103.197 723.159 101.773C725.371 100.348 727.879 99.6364 730.682 99.6364C732.848 99.6364 734.591 100 735.909 100.727C737.242 101.439 738.273 102.273 739 103.227C739.742 104.182 740.318 105.023 740.727 105.75H741.136V88.4545H747.932V135H741.295V129.568H740.727C740.318 130.311 739.727 131.159 738.955 132.114C738.197 133.068 737.152 133.902 735.818 134.614C734.485 135.326 732.758 135.682 730.636 135.682ZM732.136 129.886C734.091 129.886 735.742 129.371 737.091 128.341C738.455 127.295 739.485 125.848 740.182 124C740.894 122.152 741.25 120 741.25 117.545C741.25 115.121 740.902 113 740.205 111.182C739.508 109.364 738.485 107.947 737.136 106.932C735.788 105.917 734.121 105.409 732.136 105.409C730.091 105.409 728.386 105.939 727.023 107C725.659 108.061 724.629 109.508 723.932 111.341C723.25 113.174 722.909 115.242 722.909 117.545C722.909 119.879 723.258 121.977 723.955 123.841C724.652 125.705 725.682 127.182 727.045 128.273C728.424 129.348 730.121 129.886 732.136 129.886ZM792.227 119.909H799.136L804 126.25L806.295 129.068L814.045 139.182H806.864L801.682 132.432L799.909 129.977L792.227 119.909ZM815.545 111.727C815.545 116.697 814.636 120.97 812.818 124.545C811 128.106 808.508 130.848 805.341 132.773C802.189 134.682 798.606 135.636 794.591 135.636C790.561 135.636 786.962 134.682 783.795 132.773C780.644 130.848 778.159 128.098 776.341 124.523C774.523 120.947 773.614 116.682 773.614 111.727C773.614 106.758 774.523 102.492 776.341 98.9318C778.159 95.3561 780.644 92.6136 783.795 90.7045C786.962 88.7803 790.561 87.8182 794.591 87.8182C798.606 87.8182 802.189 88.7803 805.341 90.7045C808.508 92.6136 811 95.3561 812.818 98.9318C814.636 102.492 815.545 106.758 815.545 111.727ZM808.591 111.727C808.591 107.939 807.977 104.75 806.75 102.159C805.538 99.553 803.871 97.5833 801.75 96.25C799.644 94.9015 797.258 94.2273 794.591 94.2273C791.909 94.2273 789.515 94.9015 787.409 96.25C785.303 97.5833 783.636 99.553 782.409 102.159C781.197 104.75 780.591 107.939 780.591 111.727C780.591 115.515 781.197 118.712 782.409 121.318C783.636 123.909 785.303 125.879 787.409 127.227C789.515 128.561 791.909 129.227 794.591 129.227C797.258 129.227 799.644 128.561 801.75 127.227C803.871 125.879 805.538 123.909 806.75 121.318C807.977 118.712 808.591 115.515 808.591 111.727ZM845.869 120.523V100.091H852.688V135H846.006V128.955H845.642C844.839 130.818 843.551 132.371 841.778 133.614C840.021 134.841 837.831 135.455 835.21 135.455C832.968 135.455 830.983 134.962 829.256 133.977C827.544 132.977 826.195 131.5 825.21 129.545C824.241 127.591 823.756 125.174 823.756 122.295V100.091H830.551V121.477C830.551 123.856 831.21 125.75 832.528 127.159C833.847 128.568 835.559 129.273 837.665 129.273C838.938 129.273 840.203 128.955 841.46 128.318C842.733 127.682 843.786 126.72 844.619 125.432C845.468 124.144 845.884 122.508 845.869 120.523ZM876.864 135.705C873.424 135.705 870.462 134.97 867.977 133.5C865.508 132.015 863.598 129.932 862.25 127.25C860.917 124.553 860.25 121.394 860.25 117.773C860.25 114.197 860.917 111.045 862.25 108.318C863.598 105.591 865.477 103.462 867.886 101.932C870.311 100.402 873.144 99.6364 876.386 99.6364C878.356 99.6364 880.265 99.9621 882.114 100.614C883.962 101.265 885.621 102.288 887.091 103.682C888.561 105.076 889.72 106.886 890.568 109.114C891.417 111.326 891.841 114.015 891.841 117.182V119.591H864.091V114.5H885.182C885.182 112.712 884.818 111.129 884.091 109.75C883.364 108.356 882.341 107.258 881.023 106.455C879.72 105.652 878.189 105.25 876.432 105.25C874.523 105.25 872.856 105.72 871.432 106.659C870.023 107.583 868.932 108.795 868.159 110.295C867.402 111.78 867.023 113.394 867.023 115.136V119.114C867.023 121.447 867.432 123.432 868.25 125.068C869.083 126.705 870.242 127.955 871.727 128.818C873.212 129.667 874.947 130.091 876.932 130.091C878.22 130.091 879.394 129.909 880.455 129.545C881.515 129.167 882.432 128.606 883.205 127.864C883.977 127.121 884.568 126.205 884.977 125.114L891.409 126.273C890.894 128.167 889.97 129.826 888.636 131.25C887.318 132.659 885.659 133.758 883.659 134.545C881.674 135.318 879.409 135.705 876.864 135.705ZM899.381 135V100.091H905.949V105.636H906.312C906.949 103.758 908.07 102.28 909.676 101.205C911.297 100.114 913.131 99.5682 915.176 99.5682C915.6 99.5682 916.1 99.5833 916.676 99.6136C917.267 99.6439 917.729 99.6818 918.062 99.7273V106.227C917.79 106.152 917.305 106.068 916.608 105.977C915.911 105.871 915.214 105.818 914.517 105.818C912.911 105.818 911.479 106.159 910.222 106.841C908.979 107.508 907.994 108.439 907.267 109.636C906.54 110.818 906.176 112.167 906.176 113.682V135H899.381ZM923.943 135V100.091H930.739V135H923.943ZM927.375 94.7045C926.193 94.7045 925.178 94.3106 924.33 93.5227C923.496 92.7197 923.08 91.7651 923.08 90.6591C923.08 89.5379 923.496 88.5833 924.33 87.7955C925.178 86.9924 926.193 86.5909 927.375 86.5909C928.557 86.5909 929.564 86.9924 930.398 87.7955C931.246 88.5833 931.67 89.5379 931.67 90.6591C931.67 91.7651 931.246 92.7197 930.398 93.5227C929.564 94.3106 928.557 94.7045 927.375 94.7045ZM954.926 135.705C951.487 135.705 948.525 134.97 946.04 133.5C943.57 132.015 941.661 129.932 940.312 127.25C938.979 124.553 938.312 121.394 938.312 117.773C938.312 114.197 938.979 111.045 940.312 108.318C941.661 105.591 943.54 103.462 945.949 101.932C948.373 100.402 951.206 99.6364 954.449 99.6364C956.419 99.6364 958.328 99.9621 960.176 100.614C962.025 101.265 963.684 102.288 965.153 103.682C966.623 105.076 967.782 106.886 968.631 109.114C969.479 111.326 969.903 114.015 969.903 117.182V119.591H942.153V114.5H963.244C963.244 112.712 962.881 111.129 962.153 109.75C961.426 108.356 960.403 107.258 959.085 106.455C957.782 105.652 956.252 105.25 954.494 105.25C952.585 105.25 950.919 105.72 949.494 106.659C948.085 107.583 946.994 108.795 946.222 110.295C945.464 111.78 945.085 113.394 945.085 115.136V119.114C945.085 121.447 945.494 123.432 946.312 125.068C947.146 126.705 948.305 127.955 949.79 128.818C951.275 129.667 953.009 130.091 954.994 130.091C956.282 130.091 957.456 129.909 958.517 129.545C959.578 129.167 960.494 128.606 961.267 127.864C962.04 127.121 962.631 126.205 963.04 125.114L969.472 126.273C968.956 128.167 968.032 129.826 966.699 131.25C965.381 132.659 963.722 133.758 961.722 134.545C959.737 135.318 957.472 135.705 954.926 135.705ZM1003.6 108.614L997.443 109.705C997.186 108.917 996.777 108.167 996.216 107.455C995.67 106.742 994.928 106.159 993.989 105.705C993.049 105.25 991.875 105.023 990.466 105.023C988.542 105.023 986.936 105.455 985.648 106.318C984.36 107.167 983.716 108.265 983.716 109.614C983.716 110.78 984.148 111.72 985.011 112.432C985.875 113.144 987.269 113.727 989.193 114.182L994.739 115.455C997.951 116.197 1000.34 117.341 1001.92 118.886C1003.5 120.432 1004.28 122.439 1004.28 124.909C1004.28 127 1003.68 128.864 1002.47 130.5C1001.27 132.121 999.595 133.394 997.443 134.318C995.307 135.242 992.83 135.705 990.011 135.705C986.102 135.705 982.913 134.871 980.443 133.205C977.973 131.523 976.458 129.136 975.898 126.045L982.466 125.045C982.875 126.758 983.716 128.053 984.989 128.932C986.261 129.795 987.92 130.227 989.966 130.227C992.193 130.227 993.973 129.765 995.307 128.841C996.64 127.902 997.307 126.758 997.307 125.409C997.307 124.318 996.898 123.402 996.08 122.659C995.277 121.917 994.042 121.356 992.375 120.977L986.466 119.682C983.208 118.939 980.799 117.758 979.239 116.136C977.693 114.515 976.92 112.462 976.92 109.977C976.92 107.917 977.496 106.114 978.648 104.568C979.799 103.023 981.39 101.818 983.42 100.955C985.451 100.076 987.777 99.6364 990.398 99.6364C994.17 99.6364 997.14 100.455 999.307 102.091C1001.47 103.712 1002.91 105.886 1003.6 108.614Z" fill="black"/>
</svg>
